<?xml version="1.0" standalone="no"?>
<!DOCTYPE svg PUBLIC "-//W3C//DTD SVG 20010904//EN"
 "http://www.w3.org/TR/2001/REC-SVG-20010904/DTD/svg10.dtd">
<svg version="1.0" xmlns="http://www.w3.org/2000/svg"
 width="2448.000000pt" height="2556.000000pt" viewBox="0 0 2448.000000 2556.000000"
 preserveAspectRatio="xMidYMid meet">

<g transform="translate(0.000000,2556.000000) scale(0.100000,-0.100000)"
fill="#000000" stroke="none">
<path d="M16455 24778 c-53 -75 -131 -240 -540 -1138 -547 -1203 -809 -1761
-1545 -3291 l-224 -466 -76 -18 c-171 -40 -322 -120 -404 -217 -48 -56 -102
-163 -116 -235 -15 -69 -2 -122 37 -153 14 -11 24 -22 22 -24 -2 -1 -24 -16
-49 -33 -162 -109 -273 -358 -205 -456 11 -16 7 -24 -30 -63 -129 -132 -176
-338 -93 -404 18 -15 8 -30 -221 -345 -133 -182 -309 -416 -393 -522 l-153
-191 -7 81 c-4 45 -24 312 -43 592 -41 597 -49 669 -81 794 -50 191 -49 360 2
623 130 673 362 1250 715 1775 232 346 509 652 759 839 80 59 164 126 187 147
37 34 41 41 30 58 -6 10 -17 19 -24 19 -60 0 -335 -166 -523 -316 -133 -106
-376 -355 -476 -489 -49 -66 -128 -183 -174 -260 -46 -77 -143 -237 -216 -356
-72 -118 -135 -226 -139 -240 -7 -22 -8 -23 -15 -4 -24 65 -44 314 -45 540 0
257 12 363 61 553 142 548 578 1054 1114 1293 314 140 600 197 1036 206 283 6
358 0 611 -45 l153 -28 -211 -444 c-116 -245 -282 -598 -369 -785 -173 -371
-220 -461 -315 -606 -365 -551 -886 -863 -1594 -954 -148 -20 -181 -33 -181
-75 0 -26 4 -30 38 -36 20 -4 93 -8 162 -8 306 0 781 155 1070 350 255 171
474 409 634 687 155 270 337 631 621 1232 76 160 169 356 207 438 38 81 72
164 75 185 11 85 -46 130 -201 157 -305 53 -671 69 -934 41 -537 -57 -987
-235 -1341 -531 -107 -89 -258 -246 -334 -347 -322 -429 -467 -984 -402 -1538
24 -209 40 -267 86 -322 l40 -48 -103 -275 -103 -276 -7 153 c-9 203 -22 335
-64 624 -19 133 -34 281 -34 328 0 110 -17 344 -35 503 -18 147 -18 153 -2
153 7 0 13 16 14 44 3 80 80 209 209 347 76 82 186 222 309 394 69 96 82 121
101 197 93 357 18 682 -214 929 -105 111 -190 176 -316 240 -54 27 -100 48
-102 46 -2 -1 2 -33 8 -70 15 -90 -1 -180 -47 -275 -38 -76 -90 -133 -255
-282 -104 -93 -169 -179 -225 -295 -55 -114 -74 -185 -82 -305 -16 -263 106
-562 338 -831 l49 -57 0 -110 c0 -107 15 -416 25 -517 4 -49 4 -48 -31 40
-153 392 -412 748 -737 1014 -345 281 -811 477 -1272 535 -121 16 -427 36
-536 36 -55 0 -60 -2 -70 -27 -9 -23 -1 -41 78 -172 111 -185 190 -342 232
-456 36 -100 112 -357 107 -362 -5 -6 -77 84 -153 192 -128 181 -402 632 -635
1045 -201 355 -563 1049 -679 1300 -34 74 -73 149 -85 167 -13 17 -24 40 -24
50 0 11 -4 23 -9 28 -5 6 -30 64 -56 130 -52 132 -60 145 -84 145 -20 0 -61
-51 -61 -76 0 -9 21 -55 46 -101 51 -94 99 -224 85 -232 -30 -19 182 -400
1329 -2391 189 -327 356 -622 371 -655 15 -33 47 -128 73 -212 74 -244 145
-406 253 -573 107 -164 216 -279 387 -404 43 -32 87 -73 97 -91 11 -18 28 -35
38 -38 18 -4 30 -20 88 -117 l22 -35 -113 3 c-193 6 -446 -48 -838 -178 -430
-143 -667 -311 -828 -586 -46 -79 -47 -79 -20 2 54 156 100 353 100 428 0 44
-4 76 -10 76 -6 0 -10 41 -10 103 0 253 -61 453 -178 587 -45 52 -181 150
-208 150 -30 0 -79 61 -171 211 -144 236 -201 296 -342 367 -65 32 -84 37
-166 40 -146 7 -251 -32 -396 -148 l-73 -59 -38 66 c-75 128 -163 249 -238
324 -268 272 -512 256 -690 -44 -25 -42 -47 -77 -50 -77 -5 0 -846 971 -917
1058 -20 26 -22 26 -41 9 -19 -17 -23 -13 -177 148 -92 96 -165 165 -176 165
-10 0 -23 -9 -30 -21 -13 -25 -25 -11 226 -269 153 -157 979 -1120 1026 -1195
11 -16 19 -45 19 -64 0 -70 -457 -1828 -601 -2311 -74 -247 -109 -325 -206
-445 -87 -109 -146 -213 -182 -320 -45 -136 -54 -215 -47 -410 16 -415 66
-1227 112 -1815 39 -496 31 -634 -51 -925 -14 -49 -28 -121 -31 -160 -5 -64
-2 -83 39 -215 153 -488 674 -2015 722 -2115 58 -123 452 -643 992 -1315 697
-865 897 -1087 1260 -1393 72 -61 95 -86 103 -115 5 -20 35 -354 65 -742 30
-388 62 -797 71 -909 l17 -205 -28 -22 -28 -22 64 -7 c35 -4 151 -22 257 -41
106 -19 199 -34 207 -34 7 0 15 8 17 18 5 19 48 50 162 113 94 53 160 122 180
188 9 30 10 48 3 53 -5 3 -59 9 -119 13 -60 4 -106 10 -103 14 4 3 212 74 463
156 l457 151 0 34 0 35 -482 3 -483 2 0 24 c0 23 5 25 68 31 475 47 862 120
1185 222 135 43 147 48 141 67 -4 12 -8 23 -10 25 -2 2 -75 -8 -161 -22 -86
-14 -159 -25 -161 -23 -1 2 22 14 52 27 43 17 56 28 56 43 0 20 -15 23 -342
60 -189 21 -344 40 -346 41 -8 7 127 50 384 125 151 44 318 96 372 116 98 37
252 110 252 119 0 3 -269 5 -597 4 -637 -1 -731 4 -958 48 -130 24 -335 86
-430 128 -48 21 -165 133 -165 158 0 6 7 18 16 28 14 16 34 11 331 -88 254
-85 317 -103 324 -92 5 8 8 20 6 28 -1 8 -117 55 -282 116 -441 162 -567 215
-627 267 -33 29 -85 90 -705 833 -275 330 -576 687 -669 793 -307 352 -344
396 -422 507 -202 284 -337 542 -495 940 -72 180 -509 1464 -561 1645 -13 47
-26 120 -28 163 -3 74 -3 77 19 77 22 0 23 -4 23 -75 0 -66 2 -75 18 -75 16 0
20 20 37 162 20 174 18 458 -6 1157 -6 168 -11 450 -12 626 -2 311 -1 322 21
393 19 56 28 72 43 72 10 0 19 3 19 6 0 3 -16 44 -36 90 -20 47 -35 87 -32 89
3 3 45 -13 94 -34 84 -37 89 -38 98 -20 7 15 0 26 -36 59 -59 51 -91 124 -90
205 0 34 32 220 76 435 41 206 103 524 136 705 33 182 65 346 71 365 25 78 91
132 179 146 l41 7 -91 43 -92 44 40 47 c22 27 54 61 70 77 28 26 31 36 37 115
10 129 23 207 51 301 27 90 209 655 224 695 l9 24 80 -35 c43 -19 83 -34 88
-34 5 0 20 33 32 73 13 39 51 135 83 212 143 335 164 478 102 675 -13 41 -33
90 -45 109 -23 39 -20 44 46 62 59 16 131 4 213 -36 149 -74 287 -210 370
-365 97 -181 136 -380 136 -705 0 -293 -33 -514 -125 -852 -50 -183 -155 -513
-166 -523 -4 -5 -116 2 -248 15 -132 12 -243 20 -247 16 -4 -3 -9 -17 -13 -31
-5 -24 2 -29 132 -92 222 -109 325 -202 354 -321 20 -83 4 -189 -121 -810
-132 -657 -157 -746 -245 -865 -60 -82 -110 -106 -235 -111 -91 -3 -109 -9
-110 -37 0 -6 39 -25 88 -44 177 -67 231 -96 246 -132 19 -45 62 -241 81 -367
15 -102 15 -104 -6 -138 -16 -26 -41 -43 -95 -68 -168 -77 -292 -195 -395
-380 -32 -56 -34 -67 -37 -170 -5 -127 5 -190 148 -980 106 -585 106 -585 120
-750 6 -71 17 -166 26 -210 27 -146 165 -392 338 -605 100 -123 243 -276 711
-760 477 -495 650 -677 716 -760 73 -91 149 -210 254 -399 50 -89 125 -209
167 -266 93 -125 253 -294 403 -423 124 -106 139 -117 177 -126 22 -5 28 -3
28 10 0 17 -20 38 -173 177 -187 170 -327 348 -603 769 -418 634 -651 898
-1464 1654 -281 262 -316 301 -277 317 88 35 393 160 394 161 1 1 0 12 -4 25
-5 21 -10 22 -52 16 -25 -3 -107 -27 -181 -52 -199 -67 -249 -62 -288 27 -13
32 -62 196 -62 211 0 5 197 29 238 29 19 0 14 48 -5 54 -10 2 -71 8 -136 12
-64 3 -119 9 -121 13 -2 3 -11 41 -20 83 -20 95 -12 119 42 141 53 21 232 45
365 49 104 3 107 3 107 -18 0 -21 -6 -22 -126 -29 l-125 -7 3 -27 3 -26 205
-11 c113 -7 206 -10 208 -9 10 9 -44 119 -69 139 -50 43 -96 49 -356 47 -224
-1 -242 1 -247 17 -4 10 1 63 9 118 31 209 17 372 -73 804 l-57 275 0 200 c0
170 3 205 17 231 20 36 70 81 107 96 44 18 217 37 441 49 195 11 218 11 247
-4 49 -26 82 -90 93 -183 11 -92 30 -376 30 -449 l0 -50 -353 -84 c-193 -47
-360 -87 -369 -89 -13 -3 -28 18 -62 87 -26 50 -50 91 -54 91 -31 -1 -31 -19
7 -150 33 -116 41 -135 57 -132 30 5 839 214 843 218 5 5 -17 427 -31 578 -11
127 -12 130 -46 169 -54 59 -95 75 -229 88 -222 22 -464 -2 -640 -64 -40 -14
-73 -22 -73 -18 0 3 19 27 43 52 80 86 196 150 349 191 119 33 329 33 441 0
225 -65 370 -192 491 -432 164 -323 271 -726 351 -1319 20 -144 42 -276 50
-291 24 -46 110 -115 197 -157 77 -38 641 -357 1191 -673 282 -163 458 -249
591 -290 328 -102 527 -192 746 -338 156 -104 256 -183 466 -369 84 -73 156
-133 162 -133 23 0 52 53 52 94 0 58 -37 113 -143 213 -252 237 -530 416 -837
536 -152 59 -300 100 -495 136 -304 56 -354 84 -628 348 -308 297 -618 513
-907 633 -129 53 -122 41 -323 595 -58 160 -151 422 -206 584 -95 275 -101
294 -84 307 10 7 21 14 25 14 7 0 239 -347 281 -421 14 -25 58 -124 97 -220
39 -96 90 -205 112 -244 53 -89 136 -171 218 -214 36 -19 67 -35 69 -37 2 -2
-49 -54 -114 -116 -115 -111 -117 -113 -97 -131 19 -17 21 -16 93 41 41 33 90
76 109 97 40 42 79 65 112 65 42 0 84 -36 168 -146 95 -123 266 -299 384 -394
128 -104 310 -219 491 -313 94 -48 185 -101 203 -116 l34 -29 -89 -7 c-147
-10 -161 -14 -156 -36 4 -15 14 -19 43 -19 63 0 188 -20 289 -46 133 -35 279
-94 562 -227 134 -63 284 -131 332 -151 471 -194 809 -501 1002 -909 134 -284
195 -599 182 -947 -14 -363 -78 -593 -230 -829 -58 -91 -67 -111 -67 -150 1
-38 3 -43 13 -30 48 61 161 198 163 196 1 -1 -33 -699 -77 -1552 -43 -852 -79
-1564 -79 -1582 0 -25 7 -36 34 -52 18 -12 36 -21 40 -21 3 0 6 65 6 144 0
139 50 1099 125 2386 50 855 50 858 97 1130 42 244 42 246 42 495 1 235 -1
258 -27 378 -70 327 -219 636 -435 900 -190 232 -346 327 -1387 843 -335 167
-695 348 -800 403 l-190 101 91 0 c51 0 127 7 170 16 116 24 371 14 629 -24
110 -17 236 -33 280 -37 44 -3 153 -13 242 -21 225 -20 494 -20 608 0 182 33
338 99 472 200 l73 55 171 -144 c180 -152 262 -202 369 -230 94 -25 217 -16
345 25 117 37 145 36 260 -10 208 -83 366 -106 515 -75 206 42 1035 310 1077
347 22 21 21 48 -2 48 -8 0 -269 -83 -581 -185 -312 -101 -570 -183 -572 -181
-2 2 11 31 27 65 17 34 29 61 26 61 -3 0 -27 -11 -53 -24 -161 -81 -288 -71
-419 32 -28 23 -130 133 -226 244 -96 112 -221 255 -278 318 -57 64 -137 153
-178 199 l-74 82 100 -7 c87 -6 105 -4 145 14 64 28 99 77 105 149 7 80 -32
193 -147 424 -66 131 -86 180 -73 175 10 -4 68 -34 128 -67 86 -46 156 -97
315 -230 287 -239 445 -384 579 -530 258 -281 437 -396 697 -448 276 -56 561
-80 725 -62 246 26 445 115 613 271 62 58 86 69 115 51 10 -7 -19 -45 -121
-162 -75 -85 -171 -188 -214 -230 -155 -150 -457 -326 -1179 -686 -290 -146
-455 -220 -625 -283 -243 -91 -406 -188 -563 -339 -195 -187 -336 -402 -448
-683 -137 -345 -177 -784 -115 -1263 8 -60 17 -132 20 -160 3 -27 15 -124 26
-215 65 -540 131 -1419 160 -2135 11 -267 13 -324 32 -873 l12 -353 34 35 35
34 -81 1614 c-44 887 -79 1614 -78 1616 2 1 40 -43 86 -98 46 -55 88 -99 94
-97 23 7 16 44 -20 102 -20 33 -56 92 -80 130 -87 143 -159 359 -190 575 -20
142 -15 456 10 595 92 511 319 932 643 1198 102 83 180 127 425 238 534 242
960 412 1116 445 157 33 196 45 180 56 -7 4 -42 8 -78 9 -36 0 -87 4 -115 7
l-49 7 114 74 c160 103 151 98 235 131 250 99 450 254 649 500 114 142 233
273 262 288 38 20 75 7 140 -51 33 -29 90 -79 128 -110 66 -56 69 -58 88 -40
20 18 18 20 -108 139 l-129 121 255 268 c140 147 284 299 320 336 l65 69 24
-18 23 -19 -35 -94 c-19 -52 -87 -240 -152 -419 -159 -440 -164 -449 -285
-499 -95 -39 -291 -145 -395 -212 -183 -120 -317 -231 -596 -495 -200 -190
-268 -224 -539 -275 -85 -15 -211 -44 -280 -63 -404 -111 -814 -353 -1096
-648 -114 -119 -130 -181 -65 -258 l29 -35 24 21 c685 619 852 729 1236 810
276 59 410 128 1037 539 348 228 608 373 725 405 64 17 155 65 200 106 98 89
139 200 175 477 29 229 58 376 125 632 64 247 91 328 151 455 178 375 287 497
514 577 75 26 89 28 245 27 150 0 173 -2 253 -27 192 -59 325 -141 370 -226
14 -28 22 -51 18 -51 -5 0 -37 13 -72 29 -154 69 -304 94 -559 94 -217 0 -263
-8 -315 -54 -52 -46 -62 -98 -69 -354 -3 -121 -9 -267 -12 -325 l-7 -106 284
-77 c297 -80 462 -117 524 -117 48 0 91 42 100 96 4 21 13 66 21 99 14 55 13
61 -3 72 -15 12 -22 3 -65 -88 -38 -80 -51 -100 -65 -97 -10 2 -177 42 -372
89 l-354 84 7 160 c11 259 25 424 40 458 27 65 47 72 224 86 289 23 589 -57
648 -172 15 -28 16 -49 5 -202 -22 -321 -143 -1420 -157 -1434 -10 -10 -97 -4
-205 14 -226 38 -348 -6 -423 -152 l-17 -33 221 0 220 0 0 25 c0 14 -5 25 -12
25 -25 0 -244 21 -255 25 -6 2 -9 12 -7 22 5 18 14 18 274 -2 148 -11 271 -23
274 -26 6 -6 -11 -214 -19 -236 -3 -10 -42 -13 -145 -13 l-140 0 0 -24 c0 -22
6 -24 116 -42 l116 -18 -4 -72 c-6 -83 -37 -156 -81 -188 -45 -33 -119 -26
-282 26 -77 25 -150 48 -161 52 -18 5 -24 1 -32 -22 l-10 -29 214 -88 c118
-48 213 -91 212 -94 -2 -4 -49 -50 -106 -103 -91 -85 -312 -309 -847 -858
-260 -267 -504 -529 -568 -609 -81 -103 -161 -223 -242 -366 -191 -336 -401
-600 -644 -809 -85 -73 -121 -117 -121 -146 0 -14 167 100 265 181 96 78 242
230 297 309 25 36 82 130 128 210 313 551 700 1008 1440 1700 348 326 466 463
552 642 73 151 96 255 132 603 28 266 104 784 146 995 16 80 48 213 72 295 39
138 42 160 43 270 0 147 -17 207 -90 315 -60 88 -147 165 -271 237 -95 56
-166 120 -183 166 -20 52 -12 136 28 297 40 159 65 224 97 251 11 9 43 14 94
15 69 1 82 4 122 32 81 55 80 58 -26 70 -198 22 -267 85 -329 302 -61 210
-273 1230 -284 1366 -7 93 9 160 59 234 53 79 134 138 301 218 132 63 138 67
132 92 -4 14 -9 27 -11 29 -3 3 -115 -3 -250 -13 -135 -10 -247 -16 -250 -14
-8 8 -112 313 -128 375 -8 32 -31 161 -51 288 -81 525 -117 928 -96 1079 29
211 124 388 298 557 143 140 259 197 377 186 87 -8 92 -20 51 -110 -45 -98
-59 -177 -52 -295 6 -113 23 -170 118 -413 38 -97 76 -209 86 -248 9 -39 22
-71 29 -71 6 0 44 14 84 30 40 17 76 30 80 30 10 0 90 -174 133 -290 50 -135
103 -313 128 -432 22 -106 31 -281 16 -328 -7 -23 1 -33 87 -105 l95 -80 -67
-34 c-81 -40 -75 -35 -68 -59 4 -11 19 -22 35 -25 39 -8 98 -62 116 -105 8
-19 29 -107 46 -196 17 -88 73 -379 124 -646 148 -765 137 -701 121 -748 -8
-23 -32 -67 -53 -98 -55 -81 -74 -119 -64 -122 5 -2 48 13 97 32 48 20 89 34
91 32 2 -2 -12 -41 -31 -87 -31 -75 -33 -85 -18 -90 11 -4 28 -39 45 -91 34
-104 34 -118 8 -809 -36 -930 -36 -947 -5 -1426 6 -98 8 -103 29 -103 20 0 24
7 30 53 9 69 14 87 27 87 7 0 9 -28 5 -87 -5 -80 -20 -130 -162 -548 -505
-1487 -545 -1593 -650 -1757 -49 -74 -236 -315 -722 -925 -446 -561 -872
-1099 -983 -1243 -254 -329 -452 -467 -863 -601 -100 -32 -230 -78 -290 -102
-102 -40 -107 -43 -102 -67 4 -14 8 -26 9 -27 1 -2 137 42 301 97 165 55 304
100 310 100 6 0 20 -6 30 -14 18 -13 16 -17 -29 -79 -27 -35 -58 -70 -70 -76
-21 -11 -209 -57 -451 -111 -155 -34 -334 -65 -465 -80 -133 -16 -475 -13
-730 5 -244 17 -359 19 -379 6 -10 -6 4 -18 51 -44 183 -103 315 -148 686
-238 248 -60 262 -64 262 -86 0 -14 -6 -23 -15 -23 -111 0 -517 -61 -753 -113
-116 -25 -141 -33 -128 -43 26 -18 311 -110 448 -143 124 -30 337 -70 488 -91
69 -10 415 -50 433 -50 4 0 7 -9 7 -20 0 -20 -7 -20 -485 -20 -455 0 -485 -1
-485 -17 0 -10 -3 -28 -6 -39 -5 -21 21 -31 453 -174 252 -84 460 -155 463
-157 9 -8 -21 -19 -115 -42 l-95 -23 22 -31 c83 -121 130 -168 208 -207 44
-22 89 -53 101 -69 l21 -29 92 40 c50 22 162 74 249 115 118 57 159 82 162 97
4 24 58 870 80 1286 10 167 21 295 30 325 23 80 65 141 190 280 157 173 412
470 745 865 371 440 594 701 785 915 89 99 188 214 221 255 221 274 417 626
592 1065 72 181 336 947 476 1380 30 94 71 217 92 275 36 98 38 112 38 215 -1
101 -4 120 -41 235 -23 69 -47 161 -53 205 -18 111 -16 341 4 600 118 1555
140 1885 132 1997 -8 122 -31 228 -73 333 -49 122 -102 207 -198 318 -47 55
-92 119 -107 153 -46 102 -405 1426 -478 1762 -66 305 -113 470 -225 797 -144
420 -152 354 85 700 479 701 774 1123 807 1153 22 19 43 30 53 27 12 -4 19 4
27 28 l10 34 -106 52 c-87 44 -102 49 -83 28 l24 -25 -212 -317 c-348 -521
-768 -1115 -821 -1159 -37 -31 -48 -34 -169 -39 -52 -3 -118 -12 -145 -20
-161 -51 -328 -216 -466 -459 -29 -51 -53 -94 -55 -96 -1 -2 -40 26 -86 63
-196 155 -354 189 -521 112 -88 -41 -152 -102 -294 -281 -154 -192 -257 -299
-355 -368 -116 -81 -206 -219 -249 -383 -18 -66 -22 -111 -23 -265 l-1 -185
38 -82 c40 -87 85 -212 64 -179 -95 151 -253 319 -382 406 -266 179 -619 252
-1228 254 -207 1 -237 3 -233 16 2 8 507 1084 1121 2390 615 1306 1124 2391
1132 2412 14 33 14 38 -3 62 -23 31 -29 32 -49 4z m-4190 -1120 c96 -63 222
-181 280 -263 160 -225 201 -472 129 -786 -14 -61 -28 -87 -107 -197 -119
-166 -225 -301 -301 -382 -71 -75 -126 -148 -166 -221 l-28 -51 -13 73 c-9 47
-14 144 -13 264 0 158 4 207 23 294 41 191 112 346 229 500 64 83 64 83 44
103 -20 20 -20 20 -91 -63 -187 -218 -317 -472 -367 -722 -19 -90 -23 -254
-11 -361 l8 -69 -41 49 c-110 133 -221 335 -261 475 -20 72 -24 106 -24 234 0
143 2 154 31 237 58 162 161 294 366 470 125 108 206 264 210 404 1 39 6 64
13 64 6 0 47 -23 90 -52z m-2530 -1117 c305 -50 444 -81 607 -137 733 -251
1286 -846 1482 -1594 42 -161 60 -269 81 -490 8 -91 18 -173 21 -182 10 -33
-4 -18 -62 65 -238 341 -530 677 -784 900 -150 132 -219 182 -335 243 l-88 47
19 -32 c63 -107 211 -283 504 -600 356 -386 489 -565 597 -805 l32 -71 -22 -9
c-32 -12 -365 1 -487 19 -293 45 -533 132 -750 272 -222 144 -381 322 -503
560 -76 149 -116 276 -182 573 -99 446 -205 854 -248 950 -14 30 -59 116 -101
190 -42 74 -76 139 -76 143 0 5 12 6 28 3 15 -3 135 -23 267 -45z m-3141
-1417 c25 -24 47 -117 47 -193 0 -91 -19 -162 -88 -323 -31 -73 -66 -164 -79
-203 l-22 -70 -62 -19 c-62 -18 -62 -18 -83 2 l-20 21 113 378 c62 208 117
388 121 401 10 26 50 30 73 6z m11949 -388 c119 -398 119 -399 99 -418 -19
-20 -21 -20 -73 -3 -69 23 -77 29 -90 77 -5 22 -42 113 -80 203 -101 236 -117
334 -74 456 25 69 42 91 73 87 25 -3 29 -13 145 -402z m-10601 173 c193 -41
360 -227 446 -499 43 -137 57 -228 55 -375 -2 -220 -41 -329 -174 -495 -47
-58 -163 -206 -258 -330 -199 -258 -217 -278 -406 -447 -226 -201 -301 -298
-356 -456 l-29 -82 3 240 c4 273 12 316 92 481 106 219 142 363 184 744 31
276 75 378 237 550 122 130 129 162 57 304 -36 71 -123 287 -123 304 0 18 136
64 207 71 7 1 36 -4 65 -10z m9302 -24 c36 -33 34 -78 -6 -141 -17 -27 -45
-78 -62 -114 -29 -61 -31 -72 -31 -180 0 -112 1 -117 35 -180 21 -39 66 -97
114 -144 43 -44 84 -94 91 -110 17 -40 67 -302 100 -522 40 -269 81 -417 153
-559 73 -145 98 -304 86 -545 l-7 -155 -22 72 c-44 141 -119 240 -314 417 -76
69 -168 158 -204 198 -192 214 -537 663 -586 763 -88 181 -114 396 -71 606 38
187 108 326 220 440 76 77 154 118 293 154 124 32 176 32 211 0z m-9615 -195
c78 -117 109 -209 91 -278 -16 -66 -44 -106 -111 -162 -96 -80 -95 -80 -91 1
3 41 -3 109 -14 167 -24 134 -23 215 5 277 19 42 47 85 57 85 1 0 30 -41 63
-90z m9773 47 c35 -29 58 -85 58 -142 0 -52 -28 -334 -39 -385 l-7 -34 -78 74
c-142 136 -148 186 -46 386 35 68 68 124 74 124 6 -1 23 -11 38 -23z m-8731
-534 c78 -81 99 -109 116 -158 118 -326 101 -591 -52 -825 -75 -115 -410 -470
-711 -755 -158 -150 -163 -153 -305 -225 -125 -64 -141 -75 -119 -81 14 -4 43
-7 66 -8 23 -1 63 -4 89 -8 l47 -6 -7 -101 c-24 -350 -148 -641 -391 -919 -88
-101 -251 -244 -383 -338 l-91 -64 23 -22 23 -23 87 29 c62 21 89 27 91 18 7
-22 37 -401 43 -532 7 -155 -3 -201 -51 -243 -35 -31 -105 -52 -171 -52 l-33
0 -25 108 c-14 59 -51 220 -82 357 l-57 250 27 40 c87 127 134 257 225 615 81
320 97 364 208 587 44 87 91 190 105 230 65 180 120 256 367 508 108 110 232
247 275 305 43 58 126 164 184 235 131 162 209 282 260 399 84 190 118 387
108 618 -5 123 -4 139 11 148 9 5 20 10 23 10 3 0 48 -44 100 -97z m7713 60
c3 -21 22 -146 42 -278 40 -272 56 -354 85 -441 35 -109 44 -119 581 -746 163
-190 315 -370 338 -400 49 -64 256 -480 333 -668 80 -194 151 -409 192 -578
55 -227 62 -247 140 -412 l74 -155 -79 -333 c-43 -183 -81 -336 -84 -340 -4
-3 -37 -8 -74 -10 -88 -4 -129 16 -160 80 -34 69 -32 172 18 652 5 48 10 90
12 91 2 2 38 -10 82 -27 68 -26 80 -28 92 -16 13 13 -9 37 -174 191 -407 378
-463 469 -631 1015 -39 127 -71 236 -71 242 0 5 22 10 48 10 27 0 83 3 125 6
l75 7 -80 38 c-230 112 -404 265 -713 629 -82 96 -182 210 -222 253 -151 160
-218 310 -242 547 -18 167 20 367 87 468 29 42 181 208 194 211 3 0 9 -16 12
-36z m-4391 -238 l6 -90 -29 75 c-35 88 -35 87 -12 159 l17 55 6 -54 c4 -30 9
-95 12 -145z m-703 -230 c327 -52 605 -97 616 -100 19 -4 26 -22 49 -117 14
-62 33 -155 40 -206 8 -50 21 -104 29 -120 8 -15 26 -81 41 -147 61 -274 93
-500 114 -820 19 -278 47 -1064 38 -1055 -2 3 -77 136 -167 295 -89 160 -203
351 -253 425 -50 74 -101 162 -113 195 l-22 60 20 22 c50 54 2 190 -101 286
-90 83 -111 122 -114 215 -2 65 -8 89 -39 153 -41 85 -137 185 -218 228 -36
19 -56 41 -102 115 l-57 91 29 8 c35 9 60 51 60 99 0 53 -52 150 -118 216 -63
65 -186 134 -260 147 -31 5 -44 15 -75 61 -36 51 -37 54 -15 50 12 -3 291 -49
618 -101z m3775 -123 c467 -100 846 -408 1056 -858 l41 -86 -18 -62 c-11 -40
-17 -95 -17 -161 0 -109 17 -173 87 -331 20 -44 42 -108 48 -142 l13 -62 20
30 c11 16 22 30 25 30 3 0 174 -185 380 -411 357 -391 378 -412 439 -440 35
-16 74 -29 87 -29 24 0 58 26 66 51 6 18 135 -97 229 -202 48 -55 70 -89 75
-116 6 -32 -14 -568 -33 -891 l-6 -103 -45 -31 c-55 -38 -66 -33 -154 66 -227
255 -359 456 -549 836 -59 119 -128 244 -154 278 -98 130 -259 253 -458 347
-127 60 -173 98 -183 149 -7 41 20 108 68 169 18 22 63 84 100 136 l68 96 -55
55 c-50 51 -55 60 -70 134 -51 248 -217 581 -385 771 -261 297 -558 414 -1147
455 -201 14 -537 14 -618 0 -89 -15 -89 -15 -56 33 59 86 162 163 285 212 92
37 257 80 361 94 110 15 395 5 500 -17z m-4585 -146 c65 -11 130 -33 280 -98
l195 -85 48 -77 c27 -43 46 -80 44 -82 -2 -2 -37 3 -78 11 -111 24 -301 33
-519 23 -503 -21 -778 -85 -995 -231 -172 -116 -307 -274 -421 -490 -48 -93
-64 -105 -64 -52 0 8 -9 39 -21 70 -20 54 -22 56 -40 39 -23 -21 -23 -20 0 47
89 252 276 506 491 663 184 135 401 224 635 261 109 18 342 18 445 1z m3350
-191 c0 -2 -10 -10 -22 -16 -21 -11 -22 -11 -9 4 13 16 31 23 31 12z m885
-180 c398 -29 782 -256 1049 -618 96 -131 191 -334 235 -501 l21 -79 -27 -86
c-26 -86 -43 -121 -43 -88 0 30 -89 247 -147 356 -75 144 -142 239 -248 350
-112 117 -189 176 -313 239 -192 98 -377 143 -712 174 -167 15 -677 16 -743 1
-60 -13 -54 -6 50 69 107 77 262 136 443 169 82 14 251 27 310 23 25 -2 81 -6
125 -9z m-4193 -130 c125 -16 223 -41 337 -85 96 -37 411 -267 351 -256 -135
25 -209 30 -445 30 -668 -2 -1039 -71 -1322 -245 -125 -78 -290 -243 -383
-384 -80 -122 -86 -112 -25 46 45 117 73 170 154 290 134 201 312 361 518 467
252 130 524 175 815 137z m-1711 -162 c-8 -15 -10 -15 -11 -2 0 17 10 32 18
25 2 -3 -1 -13 -7 -23z m-103 -182 l25 -44 -17 -89 c-9 -49 -22 -138 -28 -199
l-12 -110 -157 -178 c-179 -203 -589 -651 -664 -726 -28 -27 -82 -78 -120
-113 l-70 -62 83 2 82 3 0 -65 c0 -173 -45 -380 -113 -523 -53 -112 -115 -195
-209 -282 -63 -58 -69 -67 -57 -83 7 -9 14 -18 15 -20 5 -8 161 79 180 99 26
29 100 152 143 237 89 177 134 397 115 568 -6 49 -7 104 -3 121 7 34 84 124
457 531 163 179 204 218 253 243 54 27 59 28 67 11 8 -13 167 -394 189 -449 3
-7 -20 -24 -54 -41 -366 -186 -627 -512 -867 -1084 -32 -75 -85 -181 -119
-235 -33 -54 -100 -165 -148 -248 -48 -82 -92 -156 -96 -164 -7 -10 -28 -1
-98 44 -50 32 -91 59 -91 59 -5 3 -36 697 -38 825 -1 185 6 207 100 311 265
293 429 613 510 998 14 64 34 136 45 158 22 47 102 126 407 402 l214 194 25
-24 c14 -12 36 -43 51 -67z m7932 -203 c146 -130 275 -247 287 -260 18 -18 28
-53 44 -148 39 -231 114 -435 251 -683 40 -73 75 -135 76 -139 8 -17 -24 -5
-116 44 -111 60 -157 104 -456 433 -291 320 -410 458 -435 506 l-24 44 31 49
c62 98 67 235 16 426 -7 25 -6 25 27 -6 19 -17 153 -137 299 -266z m-1923 213
c455 -100 826 -397 1033 -826 47 -97 110 -277 110 -313 0 -17 -25 -13 -282 40
-155 32 -282 57 -283 56 -2 -2 -5 -12 -9 -24 -9 -29 3 -33 324 -128 l274 -81
11 -60 10 -60 20 27 c11 14 25 34 31 44 11 18 15 18 95 -9 186 -63 318 -139
439 -253 106 -100 169 -201 365 -579 171 -330 279 -493 415 -625 l76 -76 -274
-482 c-151 -265 -276 -481 -278 -479 -2 2 -8 48 -14 103 -15 138 -26 173 -66
211 -41 38 -91 50 -145 34 -42 -13 -175 -99 -320 -208 l-86 -65 38 -146 c21
-80 37 -148 35 -150 -9 -8 -100 85 -144 146 -87 122 -120 268 -88 391 33 130
61 166 340 449 219 221 256 262 234 262 -14 0 -57 -15 -94 -32 -61 -29 -79
-33 -154 -33 -74 0 -93 4 -150 31 -84 40 -132 78 -335 259 -196 176 -319 271
-406 314 -61 29 -361 141 -367 136 -1 -1 2 -14 9 -28 8 -19 28 -30 78 -46 194
-63 371 -182 644 -436 132 -121 202 -177 322 -256 l153 -101 -96 -126 c-164
-213 -254 -291 -371 -318 -92 -22 -351 -18 -438 6 -106 29 -238 89 -369 166
l-115 69 52 5 52 5 -199 175 c-504 443 -648 601 -818 900 -96 170 -214 430
-238 524 -42 164 -11 292 99 408 52 55 55 59 24 44 -93 -48 -164 -152 -176
-257 -9 -76 10 -229 46 -379 79 -319 221 -575 521 -938 71 -85 148 -203 148
-225 0 -6 -312 116 -452 178 -92 40 -116 56 -159 103 -103 112 -101 108 -209
697 -78 430 -88 474 -122 538 -17 31 -33 56 -35 54 -2 -3 150 -795 203 -1057
l5 -25 -20 23 c-17 19 -656 444 -761 505 l-35 21 18 -21 c10 -11 17 -25 15
-30 -2 -5 76 -82 172 -170 96 -88 206 -194 243 -236 l69 -77 -84 36 c-201 85
-335 151 -460 225 -81 49 -161 88 -204 101 -64 19 -72 24 -83 55 -18 48 -15
235 4 328 65 315 287 601 580 747 39 19 102 47 141 62 63 24 115 59 103 70 -2
2 -77 -20 -166 -49 -90 -29 -163 -49 -163 -45 0 4 28 54 63 112 116 193 231
340 305 392 25 17 123 88 218 159 184 136 244 167 410 212 161 45 253 55 449
50 132 -2 204 -9 272 -24z m-4061 -142 c281 -27 422 -72 659 -211 99 -59 191
-114 203 -125 21 -16 483 -734 477 -741 -1 -1 -87 34 -191 78 -230 99 -445
172 -581 200 -116 23 -337 38 -346 23 -3 -5 90 -32 216 -63 404 -98 530 -150
912 -378 115 -69 212 -126 214 -128 2 -2 7 -99 13 -216 9 -218 4 -280 -27
-322 -12 -16 -35 -20 -148 -27 -207 -14 -286 -39 -492 -154 -44 -25 -127 -63
-185 -86 -118 -46 -429 -143 -436 -137 -2 3 41 105 96 228 55 122 102 232 106
243 6 18 -8 36 -28 37 -4 0 -49 -87 -101 -192 -138 -283 -195 -353 -461 -566
-398 -321 -791 -615 -871 -654 -71 -33 -97 -35 -166 -7 -120 47 -149 93 -146
234 1 73 -3 103 -23 158 -13 37 -27 64 -30 60 -8 -9 -55 -391 -49 -397 2 -2
68 -35 147 -73 l143 -68 -195 -105 c-108 -58 -196 -110 -196 -116 0 -5 6 -18
13 -27 11 -15 43 0 332 160 177 98 347 189 378 201 l57 24 0 49 c0 57 -8 49
193 206 280 219 547 376 769 452 l87 30 -142 -142 c-233 -233 -297 -333 -297
-460 0 -76 23 -129 81 -192 87 -94 175 -109 329 -55 l85 29 -95 -92 c-140
-136 -1280 -1098 -1404 -1186 -32 -22 -80 -48 -108 -57 -64 -21 -159 -16 -213
12 -153 79 -219 110 -363 168 -90 36 -183 80 -206 96 -75 54 -130 139 -180
279 l-27 74 28 -18 c16 -10 75 -50 133 -89 l106 -71 -1 76 c0 104 30 153 139
225 104 69 122 87 157 159 40 81 46 164 25 318 -16 114 -25 147 -82 307 -49
140 -31 284 53 424 20 32 90 115 157 185 173 181 223 277 249 473 10 81 10 91
-10 130 l-20 43 -7 -70 c-22 -215 -100 -365 -306 -580 -78 -83 -116 -131 -148
-193 -24 -45 -47 -84 -52 -87 -5 -3 -42 59 -81 137 -85 168 -142 233 -234 267
-31 12 -61 21 -67 21 -6 0 18 -30 54 -67 183 -191 282 -398 381 -803 62 -250
71 -302 64 -364 -7 -68 -34 -120 -89 -173 -43 -41 -138 -106 -145 -99 -3 2 10
32 27 66 17 34 30 68 28 75 -2 8 -115 149 -253 315 -137 166 -257 311 -266
322 -14 19 -20 12 -119 -136 -57 -86 -104 -155 -105 -154 -73 84 -320 379
-350 420 -77 103 -72 135 52 333 113 183 211 364 296 550 133 290 244 455 426
635 113 112 243 210 354 266 l49 26 33 -32 33 -32 7 50 7 51 81 29 c118 42
244 71 382 88 66 7 126 14 133 14 6 0 12 4 12 9 0 5 -26 15 -57 22 -76 15
-218 6 -356 -25 l-108 -24 -14 21 c-23 32 -18 66 18 138 139 276 402 509 722
640 156 64 296 96 530 123 68 7 229 5 331 -5z m5591 -199 c-5 -22 -27 85 -26
123 1 21 6 8 15 -38 8 -38 13 -77 11 -85z m-7364 -227 c-8 -32 -16 -59 -16
-59 -1 -1 -12 -5 -24 -8 -20 -6 -23 -4 -23 20 0 19 12 41 37 66 20 21 38 38
39 38 1 0 -5 -26 -13 -57z m10527 -123 c96 -141 138 -271 160 -496 8 -85 7
-165 -5 -364 -8 -140 -15 -264 -16 -275 -1 -21 -259 1240 -258 1265 0 19 69
-56 119 -130z m-13887 -552 l-128 -633 -8 105 c-15 181 -14 617 1 685 37 167
98 299 193 413 33 41 63 71 66 69 2 -3 -53 -290 -124 -639z m5421 -1237 c3 -5
-3 -11 -14 -14 -20 -5 -26 3 -13 16 9 10 21 9 27 -2z m406 -390 c-58 -84 -129
-168 -247 -290 -91 -95 -180 -179 -197 -188 -17 -9 -50 -16 -72 -16 -110 0
-231 143 -208 246 15 72 56 125 303 388 l146 156 178 -89 178 -89 -81 -118z
m1627 9 c90 -24 192 -72 226 -108 23 -25 25 -36 29 -134 3 -84 7 -111 20 -125
16 -16 19 -16 37 1 19 17 22 13 135 -122 160 -194 226 -252 381 -337 217 -119
440 -292 835 -649 228 -206 308 -263 415 -296 22 -7 143 -16 270 -20 299 -11
330 -15 344 -48 7 -13 10 -26 9 -27 -34 -25 -286 -165 -328 -182 -91 -36 -192
-46 -400 -39 -246 9 -567 39 -582 54 -15 15 -1 46 44 98 24 28 28 36 13 29
-87 -36 -137 -48 -205 -49 -137 -2 -130 -7 -638 500 -397 396 -448 451 -457
489 l-11 42 90 6 c50 2 99 8 108 12 43 18 65 185 33 261 -21 50 -115 178 -304
414 -90 113 -165 207 -167 209 -5 5 -118 -72 -204 -139 -83 -64 -142 -84 -227
-77 -35 2 -67 7 -70 10 -7 8 86 125 135 169 94 85 275 107 469 58z m1068 -19
c192 -47 465 -155 626 -248 159 -92 266 -185 455 -395 37 -41 107 -79 121 -64
3 3 -9 30 -26 60 -17 31 -31 61 -31 68 1 44 16 39 280 -77 145 -63 267 -115
271 -115 5 0 2 19 -6 41 -8 23 -15 47 -15 54 0 11 146 54 153 44 2 -2 21 -53
42 -114 51 -149 120 -318 152 -374 15 -25 68 -108 120 -183 51 -76 93 -142 93
-147 0 -5 -31 -37 -68 -72 -197 -184 -454 -244 -792 -184 -47 8 -135 15 -195
15 -121 0 -207 17 -267 53 -44 27 -198 161 -516 451 -213 194 -243 224 -239
246 3 14 15 64 28 112 l24 87 -90 132 c-103 153 -209 291 -308 402 -63 70 -73
77 -106 77 -21 0 -91 -18 -155 -41 -65 -22 -122 -39 -128 -37 -16 6 86 112
140 147 122 78 278 100 437 62z m-971 -329 c141 -164 234 -339 222 -416 -15
-93 -54 -118 -151 -96 -93 21 -134 48 -378 254 -217 183 -281 246 -266 261 3
2 81 54 174 114 l169 110 79 -72 c44 -39 112 -109 151 -155z m-1034 117 c45
-20 199 -120 200 -129 0 -3 -70 -93 -155 -200 -91 -114 -155 -204 -155 -217 0
-19 -199 -263 -222 -272 -15 -5 -113 66 -157 114 -44 48 -66 110 -56 158 20
92 129 254 308 456 l98 111 47 0 c26 0 67 -9 92 -21z m-397 -146 c-113 -174
-167 -266 -193 -332 -26 -68 -26 -151 0 -206 19 -40 125 -150 180 -189 l25
-17 -100 -92 c-125 -116 -302 -284 -628 -598 -199 -192 -268 -253 -314 -275
-77 -38 -148 -39 -222 -2 l-53 26 32 -33 c39 -40 36 -43 -85 -71 -49 -12 -160
-40 -245 -63 -324 -88 -487 -63 -629 96 -44 50 -108 150 -99 157 1 2 68 35
148 73 162 77 193 101 725 542 497 413 685 561 1090 856 174 127 257 181 340
220 61 29 112 51 114 49 2 -2 -37 -65 -86 -141z m2298 -10 c196 -268 220 -306
230 -376 12 -87 13 -85 -31 -92 -95 -16 -127 -9 -254 53 -139 69 -272 167
-365 269 -67 74 -167 213 -154 214 4 0 103 20 218 44 116 23 217 43 225 44 9
1 65 -66 131 -156z m-5425 -245 c120 -145 218 -270 218 -278 0 -8 -24 -88 -53
-178 -59 -184 -48 -176 -142 -95 -77 66 -143 142 -204 238 -74 113 -165 299
-165 336 0 36 60 220 75 231 35 26 54 7 271 -254z m3941 -110 c95 -92 187
-214 246 -326 60 -114 120 -291 111 -329 -11 -46 -45 -100 -71 -112 -29 -13
-103 -14 -136 -2 -30 12 -599 570 -595 583 5 14 341 257 357 257 7 1 47 -32
88 -71z m4239 29 c22 -19 28 -34 32 -78 l4 -55 -109 -164 c-148 -222 -282
-414 -292 -418 -9 -3 -81 425 -81 481 0 46 19 66 136 147 128 89 172 110 231
110 40 0 58 -5 79 -23z m-4629 -442 c45 -110 82 -203 82 -207 2 -13 -151 44
-175 66 -25 22 -44 108 -59 268 -6 64 -6 67 17 71 49 9 52 5 135 -198z m-219
110 c-28 -171 26 -296 156 -362 28 -14 52 -27 54 -28 5 -4 -195 -333 -262
-430 -72 -105 -203 -246 -290 -311 -79 -60 -220 -128 -321 -155 -105 -28 -313
-31 -425 -5 -41 10 -152 32 -247 50 -95 17 -175 34 -178 38 -3 3 16 8 43 12
115 15 263 82 377 171 58 45 412 392 873 858 124 125 226 226 228 225 1 -2 -2
-30 -8 -63z m394 -503 l18 -30 -107 -67 -107 -67 -23 29 c-13 15 -23 30 -23
33 1 13 206 147 215 140 6 -5 18 -22 27 -38z m179 -138 c73 -154 104 -244 95
-279 -19 -76 -91 -86 -206 -27 -80 41 -266 161 -263 169 1 5 305 260 311 262
1 1 29 -56 63 -125z m603 -549 l117 -139 -33 -18 c-54 -29 -183 -67 -250 -74
-136 -13 -305 50 -454 170 -79 63 -275 261 -316 318 -18 26 -10 23 89 -28 103
-54 113 -56 200 -61 116 -7 148 4 164 56 11 38 7 209 -6 266 -6 24 29 -6 182
-160 104 -104 242 -253 307 -330z m-1030 245 c48 -61 84 -116 80 -121 -3 -6
-42 -38 -87 -70 -96 -72 -218 -133 -307 -153 -68 -16 -140 -21 -140 -9 0 7 32
49 228 296 73 92 134 167 136 167 3 0 43 -50 90 -110z"/>
<path d="M21963 11105 c-95 -21 -175 -68 -252 -151 -112 -120 -171 -259 -171
-405 0 -188 107 -354 303 -471 294 -176 579 -110 767 179 81 123 116 242 108
363 -15 197 -155 293 -226 154 -9 -16 -7 -43 4 -105 32 -169 4 -291 -84 -371
-57 -52 -117 -72 -199 -66 -63 5 -173 41 -173 58 0 4 72 121 160 261 169 268
205 342 195 396 -12 67 -133 142 -265 164 -70 11 -91 11 -167 -6z m128 -255
c35 -11 70 -24 77 -28 10 -7 -20 -62 -123 -226 -75 -119 -141 -216 -146 -216
-19 0 -101 93 -122 138 -29 63 -29 153 0 207 45 85 132 142 219 144 18 1 60
-8 95 -19z"/>
<path d="M21294 10265 c-58 -29 -129 -95 -154 -145 -36 -70 -35 -95 6 -238 l7
-23 -48 26 c-65 34 -106 33 -150 -6 -47 -42 -63 -95 -41 -141 24 -50 47 -69
396 -339 341 -262 379 -289 425 -289 68 0 135 66 135 133 0 62 -35 100 -240
257 -159 122 -278 237 -310 300 -51 99 -23 178 91 261 68 49 79 64 79 109 0
66 -53 120 -118 120 -15 0 -50 -11 -78 -25z"/>
<path d="M3531 10209 c-253 -66 -521 -299 -617 -537 -53 -132 -67 -256 -43
-374 27 -132 162 -343 284 -442 68 -55 179 -111 254 -127 30 -6 98 -9 155 -7
124 6 199 32 262 92 39 38 44 47 44 88 0 53 -31 106 -75 127 -31 15 -55 12
-175 -23 -78 -22 -177 -21 -245 5 -113 42 -223 178 -246 305 -32 171 93 374
322 527 126 84 202 110 319 111 88 1 100 -1 162 -32 76 -37 152 -114 189 -189
18 -35 25 -70 27 -129 4 -73 0 -93 -32 -186 -45 -129 -45 -157 -5 -203 133
-151 329 77 305 354 -17 188 -121 379 -276 507 -66 54 -192 118 -275 139 -84
21 -242 19 -334 -6z"/>
<path d="M20594 9372 c-107 -37 -270 -183 -359 -321 -104 -161 -114 -329 -24
-423 30 -32 42 -38 77 -38 29 0 49 7 71 26 48 40 52 53 36 120 -33 136 -13
214 77 311 67 71 123 98 176 84 38 -11 132 -65 132 -77 0 -13 -81 -156 -172
-307 -110 -180 -131 -231 -132 -318 -1 -115 71 -221 183 -272 68 -32 178 -30
251 4 150 70 255 227 291 434 7 39 13 71 14 72 1 1 30 -2 65 -8 117 -19 178 9
200 90 9 36 8 48 -7 79 -15 29 -36 46 -112 86 -79 43 -118 74 -250 200 -181
173 -251 227 -327 255 -66 25 -122 26 -190 3z m456 -606 c46 -97 11 -237 -83
-323 -47 -44 -110 -63 -159 -48 -41 13 -86 54 -98 91 -22 64 -7 106 107 298
36 60 69 121 75 135 l10 26 62 -66 c34 -36 73 -87 86 -113z"/>
<path d="M4463 8980 c-44 -23 -618 -602 -667 -674 -62 -92 -1 -206 109 -206
20 0 46 5 58 11 12 7 110 98 217 203 227 223 291 268 385 274 90 5 117 -16
205 -160 38 -61 88 -80 144 -53 71 34 85 110 37 211 -66 140 -172 195 -310
163 -24 -5 -46 -8 -48 -5 -3 2 7 22 21 43 49 74 42 136 -23 182 -44 32 -80 35
-128 11z"/>
<path d="M19708 8485 c-166 -42 -333 -176 -410 -329 -108 -214 -51 -455 156
-661 94 -93 173 -137 286 -161 171 -35 356 38 510 202 76 81 110 135 140 224
41 120 14 281 -54 325 -61 40 -141 24 -171 -35 -13 -25 -14 -52 -9 -149 7
-116 6 -121 -20 -175 -41 -85 -122 -142 -215 -153 -137 -16 -298 100 -387 277
-21 41 -29 74 -32 130 -3 67 -1 81 25 130 35 68 107 125 179 141 44 10 67 8
158 -10 104 -22 108 -22 138 -4 42 25 70 79 64 122 -7 42 -48 88 -103 113 -57
25 -181 32 -255 13z"/>
<path d="M5001 8285 c-93 -26 -171 -75 -256 -160 -133 -133 -196 -267 -197
-420 -2 -142 50 -269 154 -374 112 -113 225 -173 365 -194 127 -19 270 26 390
122 172 139 272 360 244 541 -30 199 -191 387 -398 467 -86 32 -221 40 -302
18z m304 -250 c53 -26 110 -87 131 -140 25 -66 16 -174 -20 -245 -137 -271
-388 -359 -548 -193 -49 50 -68 99 -68 172 0 78 21 140 77 223 54 83 119 142
198 180 51 25 69 29 125 26 37 -2 82 -12 105 -23z"/>
<path d="M18524 8141 c-68 -42 -82 -104 -40 -184 13 -25 75 -120 136 -212 61
-92 110 -169 107 -171 -2 -2 -30 1 -63 7 -191 36 -406 -76 -495 -256 -28 -57
-34 -81 -37 -154 -5 -113 10 -183 63 -289 108 -215 285 -363 470 -395 217 -37
442 129 486 358 7 33 13 62 15 63 1 2 19 -14 38 -36 64 -71 135 -79 195 -23
36 34 47 73 35 120 -13 48 -731 1128 -773 1164 -39 33 -91 36 -137 8z m215
-736 c130 -45 257 -210 284 -368 20 -118 -33 -221 -139 -273 -48 -23 -63 -26
-124 -22 -51 4 -81 12 -116 33 -90 53 -180 167 -219 280 -26 72 -24 179 2 230
27 50 77 99 123 119 45 20 136 20 189 1z"/>
<path d="M6084 7640 c-11 -4 -33 -23 -50 -42 -38 -43 -679 -1066 -710 -1133
-13 -27 -24 -58 -24 -68 0 -53 75 -117 137 -117 60 0 101 46 233 258 69 111
127 202 130 202 3 0 10 -26 17 -59 27 -144 110 -252 240 -313 131 -62 255 -59
391 7 229 113 408 429 375 660 -23 159 -115 284 -259 352 -69 33 -86 37 -158
37 -45 0 -107 -8 -139 -16 -32 -9 -57 -13 -55 -10 55 102 59 154 16 199 -44
48 -95 63 -144 43z m331 -394 c120 -51 175 -199 127 -341 -45 -132 -141 -254
-239 -301 -165 -81 -344 22 -360 207 -14 144 107 352 244 423 72 36 158 41
228 12z"/>
<path d="M17425 7450 c-79 -39 -95 -113 -46 -209 68 -133 595 -1089 618 -1119
45 -60 105 -76 170 -45 52 24 75 67 70 128 -3 43 -46 126 -311 610 -170 308
-319 575 -333 594 -25 33 -76 61 -110 61 -10 0 -36 -9 -58 -20z"/>
<path d="M16960 7199 c-38 -15 -78 -58 -91 -96 -15 -45 10 -114 52 -144 61
-43 170 -16 204 51 56 109 -53 233 -165 189z"/>
<path d="M7283 6845 c-158 -44 -282 -155 -370 -329 -64 -127 -88 -282 -62
-396 45 -197 240 -363 487 -415 115 -25 209 -15 308 31 64 30 131 100 139 146
8 45 -15 101 -50 124 -44 29 -85 22 -163 -25 -126 -76 -199 -86 -300 -41 -168
74 -207 261 -100 474 41 81 126 168 191 196 69 30 165 25 230 -13 85 -50 117
-104 146 -249 15 -70 41 -104 90 -119 49 -14 103 7 131 53 33 52 25 163 -18
250 -64 131 -176 226 -337 287 -108 40 -235 51 -322 26z"/>
<path d="M17121 6822 c-51 -25 -76 -65 -75 -117 1 -34 39 -123 195 -446 128
-266 205 -413 226 -435 56 -57 130 -57 187 1 39 38 49 78 35 130 -11 37 -366
779 -395 823 -21 32 -73 62 -109 62 -16 0 -45 -8 -64 -18z"/>
<path d="M15775 6711 c-16 -10 -39 -28 -49 -40 -43 -48 -35 -75 213 -721 128
-333 241 -619 252 -636 40 -65 106 -81 178 -44 49 24 76 77 67 131 -3 21 -46
143 -95 271 -105 275 -111 295 -111 371 0 119 69 209 184 238 92 23 158 -13
214 -118 16 -32 72 -166 122 -298 106 -275 120 -305 156 -334 52 -41 149 -19
190 44 33 51 23 95 -96 405 -62 162 -126 322 -144 355 -99 190 -288 247 -494
150 -89 -42 -156 -108 -196 -193 -16 -34 -32 -62 -35 -62 -3 0 -33 71 -65 158
-90 239 -119 298 -158 322 -41 25 -94 26 -133 1z"/>
<path d="M14930 6476 c-212 -45 -375 -151 -482 -315 -68 -104 -99 -208 -106
-349 -8 -186 28 -347 116 -517 66 -127 193 -255 309 -313 109 -54 172 -66 313
-59 212 10 365 68 494 188 63 59 84 87 121 163 110 222 64 421 -92 403 -77 -8
-102 -46 -123 -182 -28 -180 -138 -293 -315 -326 -236 -44 -413 104 -491 407
-93 367 21 615 308 664 129 23 214 -13 352 -147 83 -81 87 -83 133 -83 57 1
87 16 114 56 41 62 15 156 -67 244 -131 140 -377 209 -584 166z"/>
<path d="M8457 6380 c-110 -19 -204 -90 -229 -174 -17 -56 10 -104 74 -130
l48 -20 55 40 c127 91 195 104 318 63 127 -42 163 -87 155 -191 -3 -36 -9 -71
-13 -78 -9 -15 -110 -9 -360 21 -201 25 -274 22 -349 -15 -105 -51 -160 -144
-161 -266 0 -94 33 -169 103 -231 61 -53 106 -76 199 -100 99 -25 187 -23 298
5 50 13 93 22 96 20 4 -2 10 -20 14 -41 9 -51 41 -116 71 -144 34 -32 107 -32
152 -1 38 28 39 32 51 167 9 96 19 134 75 295 87 250 99 294 100 375 1 99 -21
151 -95 219 -89 82 -247 152 -409 182 -83 15 -122 16 -193 4z m181 -647 c122
-13 162 -20 162 -31 0 -25 -71 -167 -98 -196 -44 -47 -106 -69 -192 -70 -172
0 -276 107 -224 232 36 86 79 94 352 65z"/>
<path d="M12202 6133 c-68 -33 -95 -119 -59 -189 32 -62 135 -84 198 -41 42
28 59 60 59 112 0 101 -105 164 -198 118z"/>
<path d="M9560 6066 c-14 -8 -35 -32 -48 -54 -25 -46 -222 -859 -222 -919 0
-137 181 -184 248 -64 11 20 41 122 66 226 57 232 78 300 124 388 44 84 85
118 153 125 45 4 60 0 145 -42 87 -44 96 -47 129 -36 57 19 94 81 81 135 -11
42 -74 103 -143 137 -93 45 -169 46 -239 1 -27 -18 -61 -44 -74 -58 -13 -14
-26 -25 -29 -25 -3 0 -4 22 -3 48 2 28 -3 64 -11 84 -25 59 -117 87 -177 54z"/>
<path d="M10610 5834 c-240 -64 -390 -286 -393 -584 -2 -258 125 -437 367
-517 73 -24 96 -27 226 -27 128 -1 152 2 202 22 119 48 218 144 218 213 0 39
-37 78 -82 86 -33 5 -47 0 -115 -45 -125 -82 -165 -97 -258 -96 -50 0 -94 6
-116 16 -57 25 -114 83 -139 141 -28 64 -41 197 -19 197 8 0 151 -18 319 -41
332 -46 378 -46 428 -4 35 30 52 83 52 167 0 285 -233 489 -555 487 -44 0
-105 -7 -135 -15z m248 -189 c106 -32 162 -111 170 -237 4 -65 2 -78 -11 -78
-15 0 -404 55 -465 65 -31 6 -33 9 -27 33 15 61 49 121 89 161 70 69 144 85
244 56z"/>
<path d="M12991 5746 c-40 -8 -101 -28 -135 -45 -242 -119 -264 -405 -38 -520
58 -30 153 -57 297 -87 71 -14 146 -33 167 -41 56 -22 88 -65 88 -118 0 -89
-83 -141 -225 -139 -97 1 -142 21 -204 91 -103 116 -100 113 -137 113 -64 0
-124 -51 -124 -106 0 -71 77 -177 159 -219 91 -46 157 -59 286 -58 312 3 499
129 513 347 5 88 -20 158 -79 211 -77 69 -151 96 -397 145 -165 32 -199 45
-231 86 -31 40 -27 80 12 119 39 39 89 55 170 55 75 0 107 -16 185 -91 72 -68
102 -83 151 -74 134 25 131 174 -5 264 -103 68 -296 96 -453 67z"/>
<path d="M12193 5721 c-70 -44 -67 -27 -76 -527 -9 -482 -7 -515 37 -559 72
-72 200 -35 225 64 5 20 12 234 15 476 5 416 4 442 -13 482 -23 50 -57 74
-114 80 -30 3 -51 -1 -74 -16z"/>
<path d="M6203 3883 l-43 -4 0 -43 c0 -43 0 -44 46 -55 148 -38 257 -154 367
-391 24 -52 275 -643 557 -1313 l514 -1218 90 3 90 3 638 1480 c351 814 638
1484 638 1488 0 4 -50 6 -112 5 l-112 -3 -465 -1082 c-256 -595 -469 -1083
-472 -1083 -3 0 -172 392 -374 871 -203 479 -388 904 -412 945 -114 194 -308
333 -528 379 -79 16 -336 28 -422 18z"/>
<path d="M620 3777 l0 -64 55 -7 c152 -18 213 -89 244 -286 7 -40 11 -314 11
-711 0 -773 9 -889 82 -1119 59 -184 144 -325 264 -441 145 -138 300 -213 536
-261 151 -30 478 -32 632 -4 251 46 426 134 568 285 153 163 239 366 285 675
14 95 17 243 20 1054 l4 942 -115 0 -115 0 -4 -977 c-4 -1045 -3 -1020 -54
-1208 -92 -337 -292 -521 -622 -570 -427 -65 -701 95 -824 480 -67 209 -68
236 -77 1130 -5 551 -12 827 -19 863 -29 130 -93 215 -191 254 -52 21 -73 23
-367 26 l-313 4 0 -65z"/>
<path d="M3680 3776 l0 -63 75 -5 c111 -7 180 -45 217 -118 59 -115 58 -81 58
-1442 l0 -1248 295 0 295 0 0 675 0 675 88 0 87 0 220 -367 c121 -203 259
-426 307 -498 251 -376 477 -525 793 -525 78 0 188 14 253 31 l42 12 0 58 0
58 -42 12 c-123 32 -288 161 -399 310 -28 38 -170 266 -315 506 l-263 436 132
44 c272 91 431 212 526 401 83 163 81 436 -3 617 -109 234 -323 377 -677 454
-163 35 -310 41 -1011 41 l-678 0 0 -64z m1365 -131 c308 -65 483 -350 436
-709 -28 -208 -130 -361 -293 -440 -100 -48 -160 -59 -370 -63 l-198 -5 0 600
0 600 73 12 c39 6 79 13 87 14 42 10 203 4 265 -9z"/>
<path d="M10117 3808 c-8 -18 -303 -678 -656 -1466 -352 -788 -641 -1435 -641
-1437 0 -3 51 -5 114 -5 l113 0 183 400 183 400 595 -2 594 -3 68 -163 c85
-203 145 -305 236 -398 119 -121 254 -195 424 -230 91 -19 352 -26 423 -11
l37 8 0 53 0 54 -47 12 c-123 30 -248 136 -334 280 -24 40 -275 627 -559 1304
l-516 1231 -102 3 -101 3 -14 -33z m152 -1315 c133 -314 241 -574 241 -577 0
-3 -225 -6 -501 -6 -397 0 -500 3 -496 13 17 44 511 1147 513 1145 1 -2 110
-260 243 -575z"/>
<path d="M11670 3778 l0 -65 78 -6 c102 -8 179 -37 240 -92 58 -52 88 -114
102 -212 6 -42 10 -538 10 -1285 l0 -1218 110 0 110 0 2 1099 3 1099 943
-1104 943 -1104 104 0 105 0 0 1475 0 1475 -115 0 -115 0 -2 -1017 -3 -1018
-790 915 c-434 503 -812 935 -840 958 -65 56 -168 106 -275 133 -73 18 -123
22 -347 26 l-263 5 0 -64z"/>
<path d="M15100 2623 c0 -717 4 -1264 10 -1329 22 -249 93 -352 264 -383 35
-6 188 -11 363 -11 l303 0 0 65 0 65 -50 0 c-119 0 -211 44 -250 120 -56 110
-54 56 -57 1428 l-4 1262 -289 0 -290 0 0 -1217z"/>
<path d="M16170 3777 l0 -64 75 -5 c111 -7 180 -45 217 -118 59 -115 58 -81
58 -1442 l0 -1248 553 0 c303 0 604 5 667 10 266 24 502 86 715 190 155 75
271 158 389 280 182 188 291 401 348 682 20 98 23 142 22 333 0 188 -3 235
-22 322 -136 629 -578 980 -1382 1099 -98 15 -227 18 -877 21 l-763 4 0 -64z
m1540 -141 c197 -45 364 -140 499 -281 156 -164 254 -363 313 -635 20 -93 22
-133 22 -350 0 -217 -2 -257 -22 -350 -60 -273 -160 -476 -316 -639 -90 -93
-169 -150 -287 -205 -161 -76 -240 -91 -479 -91 -134 0 -228 5 -272 14 l-68
13 0 1258 0 1258 88 12 c48 6 94 13 102 15 36 10 360 -5 420 -19z"/>
<path d="M19420 3776 l0 -63 75 -5 c111 -7 180 -45 217 -118 59 -115 58 -81
58 -1442 l0 -1248 290 0 290 0 0 710 0 710 604 0 605 0 4 -552 c4 -591 5 -605
56 -711 13 -26 41 -63 64 -82 75 -64 103 -68 475 -73 l332 -3 0 64 0 64 -75 5
c-111 7 -180 45 -217 118 -59 115 -58 97 -58 1451 l0 1239 -290 0 -290 0 0
-655 0 -655 -605 0 -605 0 0 459 c0 560 -8 627 -87 736 -36 49 -109 90 -187
104 -34 6 -186 11 -358 11 l-298 0 0 -64z"/>
<path d="M22910 2623 c0 -717 4 -1264 10 -1329 22 -249 93 -352 264 -383 35
-6 188 -11 363 -11 l303 0 0 65 0 65 -50 0 c-119 0 -211 44 -250 120 -56 110
-54 56 -57 1428 l-4 1262 -289 0 -290 0 0 -1217z"/>
</g>
</svg>
